<?xml version="1.0" encoding="UTF-8"?>
<svg width="200px" height="194px" viewBox="0 0 200 194" version="1.1" xmlns="http://www.w3.org/2000/svg" xmlns:xlink="http://www.w3.org/1999/xlink">
    <!-- Generator: Sketch 59 (86127) - https://sketch.com -->
    <title>ico-guestbook</title>
    <desc>Created with Sketch.</desc>
    <g id="页面-1" stroke="none" stroke-width="1" fill="none" fill-rule="evenodd">
        <g id="ico-guestbook" fill="#FFFFFF" fill-rule="nonzero">
            <path d="M180.233333,0 L53.1,0 C42.1888819,0.0137737823 33.3471072,8.85554846 33.3333334,19.7666666 L33.3333334,40 L146.9,40 C161.491113,40.0183651 173.314968,51.8422203 173.333333,66.4333334 L173.333333,110 L180.233333,110 C191.144452,109.986226 199.986226,101.144452 200,90.2333334 L200,19.7666666 C199.986226,8.85554846 191.144452,0.0137737823 180.233333,0 Z" id="路径"></path>
            <path d="M146.9,46.6666666 L19.7666666,46.6666666 C8.85554839,46.6804404 0.0137736747,55.5222152 0,66.4333334 L0,136.9 C0.0137737823,147.811118 8.85554846,156.652893 19.7666666,156.666667 L40,156.666667 L40,190 C39.9966964,191.37864 40.8424379,192.61706 42.1277557,193.115674 C43.4130734,193.614289 44.8727191,193.2702 45.8,192.25 L78.1333334,156.666667 L146.9,156.666667 C157.811118,156.652893 166.652893,147.811118 166.666667,136.9 L166.666667,66.4333334 C166.652893,55.5222152 157.811118,46.6804404 146.9,46.6666666 Z M40,80.0499999 L86.6666666,80.0499999 C87.8577441,80.0497117 88.9584684,80.6849784 89.5540904,81.7164337 C90.1497124,82.747889 90.1497124,84.0187776 89.5540904,85.0502329 C88.9584684,86.0816882 87.8577441,86.7169549 86.6666666,86.7166667 L40,86.7166667 C38.8089225,86.7169549 37.7081982,86.0816882 37.1125762,85.0502329 C36.5169542,84.0187776 36.5169542,82.747889 37.1125762,81.7164337 C37.7081982,80.6849784 38.8089225,80.0497117 40,80.0499999 Z M130,126.716667 L40,126.716667 C38.8089225,126.716955 37.7081982,126.081688 37.1125762,125.050233 C36.5169542,124.018778 36.5169542,122.747889 37.1125762,121.716434 C37.7081982,120.684978 38.8089225,120.049712 40,120.05 L130,120.05 C131.191077,120.049712 132.291802,120.684978 132.887424,121.716434 C133.483046,122.747889 133.483046,124.018778 132.887424,125.050233 C132.291802,126.081688 131.191077,126.716955 130,126.716667 L130,126.716667 Z M130,106.716667 L40,106.716667 C38.8089225,106.716955 37.7081982,106.081688 37.1125762,105.050233 C36.5169542,104.018778 36.5169542,102.747889 37.1125762,101.716434 C37.7081982,100.684978 38.8089225,100.049712 40,100.05 L130,100.05 C131.191077,100.049712 132.291802,100.684978 132.887424,101.716434 C133.483046,102.747889 133.483046,104.018778 132.887424,105.050233 C132.291802,106.081688 131.191077,106.716955 130,106.716667 Z" id="形状"></path>
        </g>
    </g>
</svg>