<?xml version="1.0" encoding="UTF-8"?>
<svg width="98px" height="103px" viewBox="0 0 98 103" version="1.1" xmlns="http://www.w3.org/2000/svg" xmlns:xlink="http://www.w3.org/1999/xlink">
    <!-- Generator: Sketch 59 (86127) - https://sketch.com -->
    <title>ico-quyuhua</title>
    <desc>Created with Sketch.</desc>
    <g id="页面-1" stroke="none" stroke-width="1" fill="none" fill-rule="evenodd">
        <g id="ico-quyuhua" transform="translate(0.906250, 0.023438)" fill="#FFFFFF" fill-rule="nonzero">
            <path d="M95.1503912,0.27983292 C93.9322451,-0.271398151 92.4925464,0.00421738445 91.6065982,0.996642408 C91.4958219,1.1069409 82.1381084,10.5345866 67.796772,10.5345866 C63.6992286,10.5345866 59.4909088,9.76275852 55.3934966,8.21897174 C51.8497037,6.89578193 48.084358,5.51744289 44.2083673,4.52514855 C39.8894024,3.42242504 35.9578923,2.87119397 32.1372897,2.87119397 C25.2158683,2.87119397 15.0828517,5.95863684 7.1093175,10.3692695 L6.22336926,7.11637891 C5.83578331,5.62787206 4.39608461,4.6904656 2.90099773,4.85591333 C1.35065394,4.96621182 0.187764837,6.23425237 0.0217315738,7.77803915 L0.0217315738,7.83305771 C-0.0336565978,8.21897174 0.0217315738,8.60488576 0.132376665,8.99093047 L2.12582583,16.2132598 C2.18121401,16.3787075 2.23660218,16.489006 2.29199035,16.6543231 L24.1083673,93.8403949 L25.4926779,99.5190681 C25.6034542,99.7948143 25.6588424,100.070561 25.8802638,100.346045 L26.0464283,100.511493 C26.6001788,101.448769 27.7075485,102 28.7596612,102 C29.2026354,102 29.6456095,101.944981 30.0331954,101.724384 C31.4728941,101.118004 32.248066,99.4639189 31.8050919,97.975412 L30.1993599,92.1312911 L25.7696187,76.0325471 C27.5415152,71.6219145 30.9745318,68.1485576 35.8471159,65.6123458 C40.3323765,63.3518802 45.9802638,61.9736718 51.4067296,61.9736718 C53.1232379,61.9736718 54.9505225,62.1389889 56.7778072,62.3595858 C58.8817702,62.6902199 60.9306075,62.8006491 62.9794449,62.8006491 C81.5843579,62.8006491 92.658711,50.8919409 93.1016851,50.3957284 C93.5999161,49.8443666 93.876857,49.1828371 93.9322451,48.4660276 L96.9776758,3.42242504 C97.1437091,2.09923523 96.3686684,0.88634392 95.1503912,0.27983292 L95.1503912,0.27983292 Z M63.5884523,51.0572579 C62.3703062,49.9546651 61.096772,48.7417738 59.7677184,47.4736026 C56.4454782,49.7340681 52.7356519,50.4508776 48.8595299,50.1751314 C44.9834079,49.8993852 41.3843581,48.5763261 37.72992,46.6466253 C37.5083673,47.3634347 37.2315577,47.9698151 37.0653932,48.6314753 C36.5670309,50.7264932 34.5183248,51.3881534 32.8572047,50.0098144 C32.0819015,49.3481541 31.5835392,48.5761954 31.9712564,47.583901 C32.3588424,46.5364575 32.9678498,45.6543309 34.186127,45.4337339 C34.573713,45.3785847 34.9059108,45.1579877 35.4596612,44.9926707 L32.635652,41.574463 L35.9580235,38.6523372 C37.8405651,40.0859562 39.6124616,41.6296123 41.5505226,42.7873543 C45.648066,45.2132677 49.9670309,45.6543309 54.2859957,43.2284176 C54.5629366,43.0629699 54.784358,42.8976528 55.2273321,42.6220373 L43.5438405,31.0991124 L40.0554357,34.352003 L34.6291012,29.3900086 C36.3456095,27.6257555 38.0067296,25.9166517 39.6678497,24.2075479 C40.8307388,23.0496751 41.9381085,21.8369145 43.1562545,20.734191 C43.4885836,20.4584447 44.0422028,20.2379784 44.4851769,20.1828292 C45.3711251,20.12768 46.2570734,20.2379784 47.1430216,20.1828292 C47.6969033,20.12768 48.1951344,19.9623629 48.6934967,19.6314674 C49.3578922,19.1904042 49.8563858,18.5840239 50.5207813,18.0326621 C51.5173747,18.9147886 52.4587111,19.8520644 53.5108238,20.734191 L49.1364708,25.5858869 C52.9572046,29.5554563 56.7778072,33.4698765 60.7091861,37.4945951 C62.9794449,33.0839625 63.422419,28.728479 61.4289698,24.2626971 C59.878626,20.8996387 57.3314264,18.4737254 54.3413839,16.3787075 C53.0678497,15.496581 51.628151,14.7247529 50.3546168,13.7323279 C51.3513414,13.8426264 52.348066,13.8977757 53.3446593,14.0080741 C61.2075484,15.3862825 67.076857,21.120105 68.6827203,28.9489453 C69.402504,32.5326007 68.5165558,35.950939 67.0214689,39.1485497 C66.8554356,39.5344637 66.6338829,39.8653592 66.4678497,40.3064225 C65.6925465,41.7949293 65.6925465,41.7949293 66.8554356,43.0078206 C67.5752193,43.8349286 68.3503912,44.6619059 69.0703062,45.4337339 L63.5884523,51.0572579 L63.5884523,51.0572579 Z" id="形状"></path>
        </g>
    </g>
</svg>