<?xml version="1.0" encoding="UTF-8"?>
<svg width="173px" height="158px" viewBox="0 0 173 158" version="1.1" xmlns="http://www.w3.org/2000/svg" xmlns:xlink="http://www.w3.org/1999/xlink">
    <!-- Generator: Sketch 59 (86127) - https://sketch.com -->
    <title>ico-liangxin</title>
    <desc>Created with Sketch.</desc>
    <g id="页面-1" stroke="none" stroke-width="1" fill="none" fill-rule="evenodd">
        <g id="ico-liangxin" transform="translate(0.593750, 0.507812)" fill-rule="nonzero">
            <path d="M22.93525,45.8521875 C22.93525,45.8521875 50.69625,26.7531875 84.89725,49.8501875 L84.89725,157.162188 C84.89725,157.162188 52.96125,114.122187 0.08225,149.944187 L22.93525,45.8521875 Z M149.68425,44.7381875 C149.68425,44.7381875 121.39325,27.6921875 86.31725,47.8801875 L86.31725,157.191188 C86.31725,157.191188 123.40625,112.937188 172.05625,146.375187 L149.68425,44.7381875 Z" id="形状" fill-opacity="0.3" fill="#FFFFFF"></path>
            <path d="M24.70325,144.510188 C24.63625,144.399187 24.68125,144.244187 24.79225,144.177188 C25.08125,143.999188 46.33425,138.070187 48.64425,137.514187 C49.04425,137.425187 49.24425,137.225188 49.24425,136.937187 C49.24425,136.382187 49.20025,136.382187 47.33425,136.959187 C43.62525,138.114188 40.44925,138.891188 40.27225,138.713188 C40.13925,138.580187 40.18325,138.469188 40.38325,138.380188 C40.56125,138.336187 42.18225,137.758188 44.02525,137.136188 C50.26625,135.026188 61.74725,130.362188 61.54825,130.007187 C61.41525,129.807187 61.65925,129.741187 56.57325,131.717187 C50.97625,133.916187 44.40325,136.092187 37.91825,137.935187 C35.94125,138.490187 29.65625,140.356187 24.81525,141.821187 C23.66025,142.176187 21.10625,142.887187 19.15225,143.398187 C15.97625,144.242187 15.28825,144.331187 12.48925,144.420187 C9.40225,144.509187 7.09225,144.176187 7.20325,143.687187 C7.22525,143.576187 8.29125,143.309187 9.57925,143.110187 C10.91225,142.888187 13.04425,142.311187 14.62025,141.733187 C17.30725,140.756187 25.28025,137.536187 27.70125,136.425187 C28.36725,136.136187 30.12225,135.426187 31.58825,134.870187 C35.18625,133.515187 37.51825,132.516187 43.80325,129.718187 C52.99725,125.632187 57.52825,123.322187 65.12325,118.858187 C67.87725,117.237187 69.92025,116.193187 71.00825,115.860187 C72.45325,115.414187 85.73325,105.341187 83.86725,106.732187 C82.00125,108.124187 92.72825,100.292187 96.83725,96.4271875 C99.59125,93.8291875 99.88025,93.4951875 99.88025,92.8071875 L99.88025,92.0521875 L98.72525,92.1631875 C97.28125,92.2741875 97.39225,92.2301875 92.06225,94.8281875 C89.64125,96.0051875 87.62025,96.9601875 87.55425,96.9601875 C87.48825,96.9601875 86.66625,97.3151875 85.73325,97.7601875 C81.11425,99.9141875 75.20625,102.335187 74.87325,102.202187 C74.40725,102.024187 74.34025,100.670187 74.71825,97.8711875 C75.22925,93.8071875 75.85125,92.6961875 80.38125,87.4331875 C84.00125,83.2581875 99.28025,67.5121875 102.50125,64.6471875 C103.47825,63.8031875 105.25525,62.2041875 106.47625,61.0941875 C108.60825,59.1621875 114.47125,54.2981875 116.53625,52.7211875 C121.02225,49.3231875 122.11025,48.5461875 122.97625,48.0131875 C123.53125,47.6801875 124.13125,47.3251875 124.30925,47.2131875 C126.06325,46.1031875 130.90525,43.2381875 131.86025,42.7051875 C132.519582,42.3570769 133.171077,41.9943202 133.81425,41.6171875 C134.48025,41.1951875 134.52525,41.1951875 134.68025,41.5731875 C134.85825,42.0391875 134.61325,42.2391875 129.28325,46.4811875 C125.46325,49.5011875 119.60025,54.7201875 117.60125,56.8971875 C116.93525,57.6301875 114.60325,60.1621875 112.44925,62.5381875 C110.27325,64.9141875 107.91825,67.4241875 107.20825,68.0901875 C106.49725,68.7561875 105.23125,70.1551875 104.41025,71.1991875 C103.437569,72.4194789 102.430498,73.6119576 101.39025,74.7751875 C100.03525,76.3071875 99.88025,76.5741875 99.88025,77.3961875 C99.88025,78.2841875 99.90225,78.3071875 100.50225,78.1731875 C102.19025,77.7951875 102.96725,77.5291875 105.92125,76.3961875 C114.56025,72.9981875 116.93625,72.2211875 122.42225,70.9771875 C123.91025,70.6441875 124.51025,70.5551875 128.57425,70.0891875 C133.34925,69.5561875 135.77025,69.5341875 138.79025,70.0001875 C140.72225,70.3111875 141.41125,70.5331875 143.27625,71.5101875 C145.05325,72.4211875 145.63025,72.8651875 146.31925,73.7751875 L147.18525,74.9081875 L147.18525,79.6831875 L145.83025,82.2591875 C145.09725,83.6581875 143.87625,85.6131875 143.12125,86.5901875 C138.47925,92.5201875 137.01425,94.2741875 134.41525,96.9391875 C129.44025,102.047187 123.15525,107.488187 116.42625,112.507187 C111.65125,116.083187 107.56525,118.725187 102.10125,121.768187 C95.03925,125.699187 91.66325,127.498187 90.08625,128.164187 C87.31025,129.363187 81.18025,131.828187 80.98025,131.828187 C80.86925,131.828187 79.35925,132.383187 77.62725,133.072187 C64.72425,138.136187 61.05925,138.979187 35.80825,142.733187 C33.25425,143.111187 29.74525,143.710187 28.05725,144.066187 C24.45925,144.821187 24.88125,144.754188 24.70325,144.510188 L24.70325,144.510188 Z" id="路径" fill="#E50012"></path>
            <path d="M61.79125,113.151187 C55.04025,112.507188 49.11025,105.356188 47.33325,95.7391875 C46.82225,92.9631875 47.00025,85.4341875 47.64425,82.0811875 C49.59825,71.9761875 54.61725,61.1161875 61.65825,51.7661875 C63.43525,49.3901875 69.00925,42.2161875 70.34225,40.5511875 C70.78625,39.9961875 72.74125,37.5531875 74.67325,35.1101875 C76.62725,32.6671875 79.11525,29.6021875 80.22525,28.3141875 C81.4612395,26.8530652 82.6826335,25.3796587 83.88925,23.8941875 C84.8818317,22.6673453 85.8811803,21.4459933 86.88725,20.2301875 C93.83825,11.8131875 98.03625,5.5721875 99.32425,1.7081875 C99.74625,0.4421875 99.90125,0.2421875 100.39025,0.1761875 C101.21225,0.0651875 102.76625,0.8201875 103.87725,1.8191875 C104.78825,2.6411875 106.47525,4.7061875 109.54025,8.7041875 C110.71725,10.2361875 111.58325,11.5241875 113.76025,14.9451875 C114.60425,16.3221875 115.98125,19.5641875 116.40325,21.2521875 C117.00325,23.7171875 117.26925,27.2931875 116.98025,29.4471875 C116.62525,32.1121875 116.60225,32.2451875 116.33625,33.0451875 C116.20325,33.4451875 115.93625,34.3331875 115.73625,34.9991875 C114.95925,37.5531875 112.87125,41.3511875 110.36225,44.8821875 C107.85225,48.3911875 105.92025,50.5231875 99.88025,56.4301875 C85.64425,70.3551875 80.62525,75.6181875 76.02825,81.5261875 C71.85325,86.8561875 69.58825,91.2091875 69.03225,94.9621875 C68.56625,98.1381875 68.54325,99.2931875 68.87725,100.914187 C69.32125,103.024187 69.81025,103.979187 70.76525,104.645187 C71.43125,105.089187 71.80925,105.178187 73.27525,105.178187 C75.96225,105.178187 79.24925,103.823187 83.84625,100.825187 C84.86825,100.159187 85.80025,99.6701875 85.91125,99.7591875 C86.04425,99.8261875 85.22325,100.869187 84.06825,102.046187 C82.93525,103.223187 81.44725,104.822187 80.80325,105.622187 C78.76025,108.043187 77.33825,109.286187 75.51725,110.241187 C73.87425,111.085187 70.67625,112.218187 68.41025,112.751187 C66.94425,113.107187 63.41225,113.307187 61.79125,113.151187 L61.79125,113.151187 Z M102.07825,41.6841875 L103.27725,40.6181875 L102.56625,39.5961875 L101.85525,38.5521875 L102.76625,36.7091875 C104.87625,32.4451875 104.83125,28.2921875 102.63325,23.7171875 C101.43425,21.2071875 99.90125,19.5861875 97.81425,18.5871875 C97.01425,18.2091875 96.30425,17.8991875 96.21525,17.8991875 C96.12625,17.8991875 96.59325,18.4761875 97.23725,19.1871875 C97.88125,19.8751875 98.83625,21.1191875 99.34725,21.9191875 C101.59025,25.3611875 102.12325,29.4481875 100.85725,33.2231875 C100.50225,34.2671875 100.12425,35.1111875 99.99125,35.0891875 C99.79125,35.0891875 93.79525,27.0271875 93.50625,26.3611875 C93.4394389,26.1522407 93.5215126,25.9244862 93.70625,25.8061875 C93.88425,25.6731875 94.57225,25.0731875 95.21625,24.4961875 L96.41525,23.4301875 L96.01525,22.7191875 C95.23825,21.2531875 95.12725,21.1871875 94.41625,21.5641875 C93.61625,21.9861875 92.97225,21.9861875 91.99525,21.5861875 L91.26225,21.2751875 L88.55325,24.1401875 C86.79925,26.0061875 85.91025,27.0941875 86.02125,27.2711875 C86.11025,27.4261875 86.77625,28.2931875 87.50925,29.1811875 L88.81925,30.8021875 L89.70725,29.7801875 C90.46225,28.9361875 90.66225,28.8031875 90.90625,29.0471875 C91.06125,29.2021875 92.48325,31.2231875 94.08225,33.5331875 C96.19225,36.5981875 96.92525,37.8191875 96.74725,38.0191875 C96.43625,38.3971875 94.19325,38.7521875 92.99425,38.6191875 C90.79525,38.3751875 88.06425,36.8201875 86.35425,34.8881875 L85.68825,34.1331875 L85.04425,34.9551875 L84.37825,35.7771875 L84.93325,36.7321875 C85.59925,37.8421875 85.48825,38.3311875 84.57825,38.3311875 C83.40125,38.3311875 83.04625,39.7301875 84.00125,40.6631875 C84.73425,41.3961875 85.75525,41.3961875 86.24425,40.6631875 C86.44425,40.3741875 86.53325,39.9301875 86.44425,39.6861875 C86.22225,38.9311875 86.75525,38.9531875 87.66525,39.7301875 C90.44125,42.0841875 94.30525,42.7061875 97.74825,41.3291875 C98.54825,41.0181875 99.30325,40.7961875 99.41425,40.8851875 C99.54725,40.9521875 99.85825,41.3961875 100.12525,41.8841875 C100.41425,42.3731875 100.68025,42.7721875 100.74725,42.7721875 C100.81225,42.7721875 101.41125,42.2841875 102.07825,41.6841875 L102.07825,41.6841875 Z" id="形状" fill="#E50012"></path>
            <path d="M99.94525,42.2841875 C99.61225,41.7511875 99.32325,41.2851875 99.30125,41.2621875 C99.25725,41.2181875 98.56825,41.4401875 97.76925,41.7731875 C94.30425,43.1501875 90.44025,42.5281875 87.66425,40.1741875 C87.17525,39.7521875 86.84225,39.5521875 86.90925,39.7301875 C87.06425,40.1521875 86.46525,41.3511875 85.99825,41.5291875 C85.79825,41.5961875 85.37625,41.6621875 85.06525,41.6621875 C84.33225,41.6621875 83.00025,40.3291875 83.00025,39.5971875 C83.00025,38.8421875 83.80025,37.8871875 84.46625,37.8871875 C85.13225,37.8871875 85.13225,37.8201875 84.46625,36.6661875 L83.91125,35.7551875 L84.79925,34.7111875 L85.68725,33.6891875 L87.10825,35.1101875 C89.77325,37.7311875 92.94925,38.7521875 95.94725,37.9301875 L96.56925,37.7751875 L93.61525,33.4891875 L90.66125,29.2031875 L89.72825,30.2691875 C89.15125,30.9351875 88.72925,31.2461875 88.59525,31.1131875 C88.12925,30.5801875 85.73025,27.5371875 85.57525,27.2711875 C85.46425,27.0931875 86.39725,25.9381875 88.32925,23.9181875 L91.23825,20.8311875 L91.99325,21.1421875 C92.97025,21.5421875 93.61425,21.5421875 94.43625,21.0981875 C95.08025,20.7651875 95.12425,20.7871875 95.59125,21.3651875 C95.85825,21.7201875 96.25725,22.3201875 96.47925,22.7421875 L96.87925,23.4751875 L95.34725,24.8741875 L93.81525,26.2511875 L96.79125,30.3821875 C98.43425,32.6691875 99.83425,34.5351875 99.90025,34.5571875 C99.96725,34.5571875 100.27825,33.7801875 100.54425,32.8471875 C101.29925,30.3601875 101.25525,27.5171875 100.45525,25.1411875 C99.72225,22.9871875 98.25625,20.6991875 96.52425,18.9451875 C95.79125,18.2121875 95.25825,17.5461875 95.36925,17.4351875 C95.63625,17.1681875 97.85625,18.0351875 99.16725,18.9451875 C100.85525,20.1001875 101.96525,21.4991875 103.09825,23.7861875 C105.27425,28.2721875 105.29725,32.4701875 103.20925,36.7111875 L102.29825,38.5541875 L102.98625,39.5531875 C103.36425,40.1081875 103.65225,40.6411875 103.60825,40.7521875 C103.51925,40.9741875 100.83225,43.2171875 100.67625,43.2171875 C100.61225,43.2161875 100.27925,42.7941875 99.94525,42.2841875 Z" id="路径" fill="#FCFE01"></path>
        </g>
    </g>
</svg>