<?xml version="1.0" encoding="UTF-8"?>
<svg width="130px" height="128px" viewBox="0 0 130 128" version="1.1" xmlns="http://www.w3.org/2000/svg" xmlns:xlink="http://www.w3.org/1999/xlink">
    <!-- Generator: Sketch 59 (86127) - https://sketch.com -->
    <title>ico-news</title>
    <desc>Created with Sketch.</desc>
    <g id="页面-1" stroke="none" stroke-width="1" fill="none" fill-rule="evenodd">
        <g id="ico-news" fill="#FFFFFF" fill-rule="nonzero">
            <path d="M121.301775,21.8934911 L112.781065,21.8934911 L112.781065,117.514793 L73.0177515,117.514793 C73.0177515,123.195266 76.8047337,127.928994 81.5384615,127.928994 L121.301775,127.928994 C126.035503,127.928994 129.822485,123.195266 129.822485,117.514793 L129.822485,32.3076923 C129.822485,26.6272189 126.035503,21.8934911 121.301775,21.8934911 Z" id="路径"></path>
            <path d="M97.6331361,0.118343195 L8.63905325,0.118343195 C3.90532544,0.118343195 0.118343195,4.85207101 0.118343195,10.5325444 L0.118343195,117.514793 C0.118343195,123.195266 3.90532544,127.928994 8.63905325,127.928994 L97.6331361,127.928994 C102.366864,127.928994 106.153846,123.195266 106.153846,117.514793 L106.153846,11.4792899 C105.207101,4.85207101 101.420118,0.118343195 97.6331361,0.118343195 Z M17.1597633,27.5739645 L49.3491124,27.5739645 L49.3491124,59.7633136 L17.1597633,59.7633136 L17.1597633,27.5739645 Z M81.5384615,101.420118 L17.1597633,101.420118 L17.1597633,91.0059172 L81.5384615,91.0059172 L81.5384615,101.420118 Z M81.5384615,80.591716 L17.1597633,80.591716 L17.1597633,70.1775148 L81.5384615,70.1775148 L81.5384615,80.591716 Z M81.5384615,58.816568 L56.9230769,58.816568 L56.9230769,48.4023669 L80.591716,48.4023669 L81.5384615,58.816568 L81.5384615,58.816568 Z M81.5384615,37.9881657 L56.9230769,37.9881657 L56.9230769,27.5739645 L80.591716,27.5739645 L81.5384615,37.9881657 L81.5384615,37.9881657 Z" id="形状"></path>
        </g>
    </g>
</svg>