<?xml version="1.0" encoding="UTF-8"?>
<svg width="147px" height="141px" viewBox="0 0 147 141" version="1.1" xmlns="http://www.w3.org/2000/svg" xmlns:xlink="http://www.w3.org/1999/xlink">
    <!-- Generator: Sketch 59 (86127) - https://sketch.com -->
    <title>ico-so</title>
    <desc>Created with Sketch.</desc>
    <g id="页面-1" stroke="none" stroke-width="1" fill="none" fill-rule="evenodd">
        <path d="M70.5872244,51.9536504 C72.3079025,49.962842 73.6750166,47.9957338 75.4192654,46.5026277 C76.5742412,45.5309236 78.2713482,45.1043218 79.779888,44.67772 C80.7698671,44.4170189 81.877701,44.6303198 82.938393,44.6303198 C88.2418528,44.6540199 91.4710705,47.569132 92.1310566,52.9253544 C92.7439008,57.854975 93.356745,62.8082958 93.9931604,67.7379164 C94.0403022,68.0223176 94.158157,68.2830186 94.4645789,69.2310227 C95.0067103,67.856417 95.4074162,67.0506137 95.6431256,66.1737099 C98.9666271,54.2525601 102.242987,42.3314102 105.61363,30.4339605 C105.849339,29.6044569 106.580038,28.2772514 107.027886,28.3006384 C108.13572,28.3483517 109.219983,29.0119545 110.304246,29.5096565 C111.034945,29.8414579 111.67136,30.3154599 112.402059,30.5998611 C115.890557,31.998167 119.591193,32.9935711 122.79684,34.8658789 C125.248217,36.2878849 127.487455,38.491994 129.137421,40.8146039 C132.272355,45.2228224 136.491552,46.7870289 141.559302,46.9292293 C143.185696,46.9766296 144.812091,46.9292293 146.792049,46.9292293 C146.391343,47.8772333 146.179205,48.5171359 145.872783,49.0622383 C142.714278,54.5606614 139.48506,60.0116841 136.420839,65.5812075 C135.218721,67.7853166 133.403759,68.5911201 131.117379,68.828121 C126.167483,69.3258232 121.618293,68.0934179 117.210529,65.8419085 C115.018432,64.7043037 112.708481,63.7325996 110.327817,63.1400972 C106.556467,62.1920933 102.997257,64.1118013 101.606572,67.7853166 C99.6030423,73.0704387 97.7645096,78.4266611 96.0202606,83.8065836 C95.0302814,86.8401963 94.0874441,87.7645001 90.95251,87.8830007 C90.268953,87.9067008 89.5853959,87.954101 88.9254098,87.8830007 C87.3461574,87.7170999 86.8747387,88.451803 86.756884,89.9686094 C85.7669048,102.458562 84.7062128,114.924814 83.6690919,127.414766 C83.5276663,129.073773 83.5276663,130.73278 83.268386,132.368087 C82.4669743,137.487308 80.133452,139.928418 75.0892724,140.42612 C71.8129128,140.734222 68.4422694,140.757922 65.1659099,140.42612 C60.0274465,139.904718 57.2932185,136.563004 56.8925126,131.325282 C56.0675299,120.494337 55.1246926,109.663392 54.2289972,98.8324464 C53.9932879,96.0595348 53.8282913,93.2629232 53.7104368,90.4663114 C53.6397239,88.6651038 53.0740216,87.5985995 51.0233505,87.8593006 C50.1276551,87.9778011 49.2083886,87.9304009 48.3126932,87.8593006 C45.7434616,87.6222996 44.0934964,85.3707901 44.4234892,82.7637792 C45.6020358,73.7103413 46.7098697,64.6569035 47.8648454,55.6034656 C48.0769838,53.8970584 48.2891223,52.1432511 48.7605408,50.4842443 C49.6798071,47.0951301 52.7675993,44.7725204 56.2560974,44.67772 C56.4918067,44.67772 56.7039452,44.7014201 56.9396545,44.67772 C61.3474189,44.0141172 64.8830587,45.388723 67.570145,49.0385382 C68.1829892,49.8680418 69.1258265,50.5553445 70.5872244,51.9536504 Z M25.9438783,52.1906515 C30.563781,47.6402325 33.8401406,42.4736108 40.4164307,44.9621211 C37.4464932,57.1676723 36.7629362,69.9183256 35.0186873,82.479378 C34.2879884,87.6933998 36.5743688,91.9357176 40.9585623,94.8508298 C42.2313926,95.7040333 42.5613856,96.580937 42.3963892,98.0266431 C41.6185484,104.923372 40.9585623,111.820101 40.2278633,118.71683 C39.9921541,120.897239 39.8271574,123.077648 39.332168,125.210657 C38.5307562,128.765672 35.5372478,131.254182 31.9073242,131.396383 C28.3716844,131.538583 24.8360444,131.491183 21.3004046,131.420083 C17.4583427,131.372683 14.0405574,128.481271 13.5691387,124.736655 C12.8148688,118.74053 12.3198793,112.744405 11.6834642,106.72458 C11.07062,100.870655 10.5049176,95.0167306 9.79778945,89.1865061 C9.72707661,88.665104 8.83138124,88.0015012 8.24210797,87.8593006 C6.87499387,87.5748994 5.41359598,87.6696998 4.02291112,87.4326987 C1.73653069,87.029797 0.605125862,85.5129907 0.817264188,83.2377813 C1.21797008,79.113964 1.68938862,74.9901468 2.23152018,70.8900297 C3.08007367,64.3962024 3.92862734,57.8786753 4.91860649,51.4085481 C5.53145071,47.4269315 8.7606684,44.7251202 12.7677269,44.6303198 C13.451284,44.6066196 14.134841,44.7014201 14.7948271,44.6066196 C18.2597543,44.0852175 20.9704114,45.3413227 23.0210827,48.1142344 C23.96392,49.3940397 24.8831863,50.6975451 25.9438783,52.1906515 L25.9438783,52.1906515 Z M43.5042229,17.8255076 C43.834216,25.9783418 37.4229223,35.0317797 26.5802934,35.0555387 C16.8926402,35.0791799 9.75064756,27.94545 9.49136734,18.1810091 C9.25565807,9.08017104 15.8319482,1.11693778 26.2031585,0.690335947 C35.6551025,0.287434225 43.3392265,8.17956734 43.5042229,17.8255076 L43.5042229,17.8255076 Z M53.1918762,17.7781074 C52.8383122,9.83857426 59.5088861,0.761436283 70.3043732,0.666635835 C79.6384625,0.595535498 87.2047317,8.60616899 87.1578089,18.0862087 C87.1340189,27.4240477 79.4734658,34.9843794 70.0922347,34.9607349 C60.5695781,34.9607349 53.1683052,27.4003478 53.1918762,17.7781074 Z" id="ico-so" fill="#FFFFFF" fill-rule="nonzero"></path>
    </g>
</svg>