<?xml version="1.0" encoding="UTF-8"?>
<svg width="128px" height="129px" viewBox="0 0 128 129" version="1.1" xmlns="http://www.w3.org/2000/svg" xmlns:xlink="http://www.w3.org/1999/xlink">
    <!-- Generator: Sketch 59 (86127) - https://sketch.com -->
    <title>ico-tongzhan</title>
    <desc>Created with Sketch.</desc>
    <g id="页面-1" stroke="none" stroke-width="1" fill="none" fill-rule="evenodd">
        <g id="ico-tongzhan" transform="translate(0.000000, 0.585938)" fill="#FFFFFF" fill-rule="nonzero">
            <path d="M115.926086,102.886887 C123.155472,102.886887 129.105321,108.844845 127.825783,115.251251 C127.825783,122.042042 122.259796,128 115.030409,128 C108.184884,128 102.235036,122.042042 102.235036,115.251251 C102.235036,113.137137 102.682874,111.407407 103.514573,109.741742 L92.4465748,100.772773 C85.6010499,108.46046 75.4287278,113.96997 63.9128916,113.96997 C52.3970554,113.96997 42.1607563,108.844845 35.3792082,100.772773 L24.31121,109.741742 C25.1429094,111.471471 25.5907474,113.585586 25.5907474,115.251251 C25.5907474,122.042042 20.0247599,128 12.7953737,128 C5.94984875,128 0,122.042042 0,115.251251 C0,108.46046 5.56598758,102.502502 12.7953737,102.502503 C17.0818239,102.502503 20.4725979,104.616617 23.0316727,107.627628 L33.6518328,98.6586587 C28.9815214,92.2522523 25.9746086,84.1801802 25.9746086,75.2752753 C25.9746086,54.3903905 42.6085943,37.7977978 63.0172154,36.964965 L63.0172154,25.4974976 C56.6195286,25.0490491 51.501379,19.5395396 51.501379,12.7487488 C51.501379,5.95795795 57.0673666,0 64.2967528,0 C71.1422777,0 77.0921265,5.95795795 77.0921265,12.7487488 C77.0921265,19.5395396 71.9739769,24.6646647 65.5762901,25.4974976 L65.5762901,36.964965 C86.048888,37.4134134 102.618897,54.3903905 102.618897,75.2752753 C102.618897,84.2442443 99.6119841,92.3163164 94.9416727,98.6586587 L105.561833,107.627628 C108.248861,105.001001 111.639635,102.886887 115.926086,102.886887 L115.926086,102.886887 Z M57.5791815,78.6066066 L65.2564058,82.4504505 L63.9768684,73.92993 L69.9267172,67.971972 L61.4177937,66.6906907 L57.5791815,59.0030031 L53.7405695,66.6906907 L45.231646,67.971972 L51.1814947,73.92993 L49.9019573,82.4504505 L57.5791815,78.6066066 L57.5791815,78.6066066 Z M76.7082653,63.6796797 L79.2673399,64.960961 L78.8195019,61.94995 L80.9307386,59.8358358 L77.9238257,59.3873874 L76.6442884,56.8248248 L75.3647511,59.3873874 L72.485792,59.8358358 L74.5970286,61.94995 L74.1491905,64.960961 L76.7082653,63.6796797 L76.7082653,63.6796797 Z M80.9947155,78.6066066 L83.5537901,79.8878879 L83.1059521,76.8768769 L85.2171887,74.7627628 L82.2102759,74.3143143 L80.9307386,71.7517517 L79.6512012,74.3143143 L76.6442884,74.7627628 L78.755525,76.8768769 L78.307687,79.8878879 L80.9947155,78.6066066 L80.9947155,78.6066066 Z M74.5970286,92.1881881 L77.1561033,93.4694694 L76.7082653,90.4584584 L78.8195019,88.3443444 L75.8125891,87.895896 L74.5330517,85.3333334 L73.2535143,87.895896 L70.2466015,88.3443444 L72.3578382,90.4584584 L71.9100001,93.4694694 L74.5970286,92.1881881 L74.5970286,92.1881881 Z M57.5791815,95.6476477 L60.1382563,96.928929 L59.6904183,93.917918 L61.8016549,91.8038038 L58.794742,91.3553554 L57.5152047,88.7927928 L56.2356674,91.3553554 L53.2287545,91.8038038 L55.3399912,93.917918 L54.8921532,96.928929 L57.5791815,95.6476477 Z" id="形状"></path>
        </g>
    </g>
</svg>