<?xml version="1.0" encoding="UTF-8"?>
<svg width="24px" height="22px" viewBox="0 0 24 22" version="1.1" xmlns="http://www.w3.org/2000/svg" xmlns:xlink="http://www.w3.org/1999/xlink">
    <!-- Generator: Sketch 59 (86127) - https://sketch.com -->
    <title>quote-end</title>
    <desc>Created with Sketch.</desc>
    <g id="页面-1" stroke="none" stroke-width="1" fill="none" fill-rule="evenodd">
        <g id="桌面端-HD" transform="translate(-352.000000, -137.000000)" fill="#FFFFFF" fill-rule="nonzero">
            <g id="编组" transform="translate(40.000000, 114.000000)">
                <path d="M320.313725,23 L322.196078,26.2014925 C318.196078,28.9104478 316.235294,31.7014925 316.235294,36.380597 C316.470588,36.2985075 316.705882,36.2985075 316.941176,36.2985075 C319.058824,36.2985075 321.098039,37.7761194 321.098039,40.4850746 C321.098039,43.2761194 319.372549,45 316.941176,45 C313.803922,45 312,42.3731343 312,37.6119403 C312,31.0447761 314.901961,26.2835821 320.313725,23 Z M334.196078,23 L336,26.2014925 C332.078431,28.9104478 330.039216,31.7014925 330.039216,36.380597 C330.27451,36.2985075 330.509804,36.2985075 330.745098,36.2985075 C332.941176,36.2985075 334.901961,37.7761194 334.901961,40.4850746 C334.901961,43.2761194 333.176471,45 330.745098,45 C327.607843,45 325.803922,42.3731343 325.803922,37.6119403 C325.803922,31.0447761 328.705882,26.2835821 334.196078,23 Z" id="quote-end" transform="translate(324.000000, 34.000000) rotate(-180.000000) translate(-324.000000, -34.000000) "></path>
            </g>
        </g>
    </g>
</svg>