<?xml version="1.0" encoding="UTF-8"?>
<svg width="24px" height="22px" viewBox="0 0 24 22" version="1.1" xmlns="http://www.w3.org/2000/svg" xmlns:xlink="http://www.w3.org/1999/xlink">
    <!-- Generator: Sketch 59 (86127) - https://sketch.com -->
    <title>quote-begin</title>
    <desc>Created with Sketch.</desc>
    <g id="页面-1" stroke="none" stroke-width="1" fill="none" fill-rule="evenodd">
        <g id="桌面端-HD" transform="translate(-40.000000, -114.000000)" fill="#FFFFFF" fill-rule="nonzero">
            <g id="编组" transform="translate(40.000000, 114.000000)">
                <path d="M8.31372549,0 L10.1960784,3.20149254 C6.19607843,5.91044776 4.23529412,8.70149254 4.23529412,13.380597 C4.47058824,13.2985075 4.70588235,13.2985075 4.94117647,13.2985075 C7.05882353,13.2985075 9.09803922,14.7761194 9.09803922,17.4850746 C9.09803922,20.2761194 7.37254902,22 4.94117647,22 C1.80392157,22 0,19.3731343 0,14.6119403 C0,8.04477612 2.90196078,3.28358209 8.31372549,0 Z M22.1960784,0 L24,3.20149254 C20.0784314,5.91044776 18.0392157,8.70149254 18.0392157,13.380597 C18.2745098,13.2985075 18.5098039,13.2985075 18.745098,13.2985075 C20.9411765,13.2985075 22.9019608,14.7761194 22.9019608,17.4850746 C22.9019608,20.2761194 21.1764706,22 18.745098,22 C15.6078431,22 13.8039216,19.3731343 13.8039216,14.6119403 C13.8039216,8.04477612 16.7058824,3.28358209 22.1960784,0 Z" id="quote-begin"></path>
            </g>
        </g>
    </g>
</svg>